<svg width="667" height="667" viewBox="0 0 667 667" fill="none" xmlns="http://www.w3.org/2000/svg">
<path d="M143.326 99.9999H633.333L566.667 333.333H179.224M600 466.667H200L133.333 33.3333H33.3335M233.333 600C233.333 618.41 218.409 633.333 200 633.333C181.591 633.333 166.667 618.41 166.667 600C166.667 581.59 181.591 566.667 200 566.667C218.409 566.667 233.333 581.59 233.333 600ZM600 600C600 618.41 585.077 633.333 566.667 633.333C548.257 633.333 533.333 618.41 533.333 600C533.333 581.59 548.257 566.667 566.667 566.667C585.077 566.667 600 581.59 600 600Z" stroke="#F7F2EB" stroke-width="66.6667" stroke-linecap="round" stroke-linejoin="round"/>
</svg>
