<svg width="800" height="740" viewBox="0 0 800 740" fill="none" xmlns="http://www.w3.org/2000/svg">
<path d="M400 740L380 723.333C290 656.667 0 416.667 0 210C0 93.3333 96.6667 0 216.667 0C290 0 360 36.6667 400 96.6667C440 36.6667 510 0 583.333 0C703.333 0 800 93.3333 800 210C800 420 510 656.667 420 726.667L400 740ZM216.667 63.3333C133.333 63.3333 66.6667 126.667 66.6667 206.667C66.6667 343.333 236.667 523.333 400 653.333C563.333 523.333 733.333 343.333 733.333 206.667C733.333 126.667 666.667 63.3333 583.333 63.3333C530 63.3333 483.333 90 456.667 130L400 220L343.333 133.333C316.667 90 270 63.3333 216.667 63.3333Z" fill="#F7F2EB"/>
</svg>
