<svg width="409" height="315" viewBox="0 0 409 315" fill="none" xmlns="http://www.w3.org/2000/svg">
<path d="M267.333 1.81389C260 4.34722 252.8 10.6139 248.267 18.0806C245.067 23.6806 244.667 25.6806 244.667 36.3472C244.667 48.3472 244.667 48.3472 251.067 59.0139C258.667 71.8139 262.667 83.9472 262.667 94.2139V101.681L280 119.014L297.333 136.347V115.414C297.333 97.2806 297.733 93.1472 300.667 82.8806C302.533 76.3472 306.8 65.6806 310.133 59.0139C314.533 50.4806 316.533 44.8806 316.933 39.6806C317.6 32.0806 316 23.2806 312.933 19.1472C311.467 17.0139 310.533 18.6139 304.8 33.2806C301.2 42.3472 298.133 49.8139 298 50.0806C297.867 50.2139 292.8 51.2806 286.8 52.2139L275.867 53.9472L270.267 47.1472C267.067 43.4139 263.867 39.4139 262.933 38.2139C261.467 36.2139 264.667 26.0806 273.333 5.28056C276 -0.852778 275.467 -1.11944 267.333 1.81389Z" fill="#F7F2EB"/>
<path d="M80.5333 4.21378C71.0667 6.48045 62.8 11.6804 51.7333 22.0804C42.2667 31.0138 26.6667 49.4138 26.6667 51.8138C26.6667 52.4805 44.6667 53.1471 69.7333 53.2805L112.667 53.6805L112.933 99.6805L113.2 145.68L90.6667 168.347L68 191.014V161.814C68 136.48 68.4 131.414 70.6667 123.68C73.3333 114.88 73.3333 114.747 70.6667 94.4805C69.2 83.4138 67.7333 73.6805 67.3333 72.8805C66.2667 71.4138 52.4 71.2805 51.4667 72.8805C51.0667 73.4138 49.4667 83.2805 47.7333 94.6138L44.8 115.28L48.4 123.814L52 132.347V169.68V207.014L26 233.014C11.7333 247.28 0 259.547 0 260.347C0 264.88 42.9333 311.68 47.0667 311.68C47.8667 311.68 82.9333 277.28 124.933 235.414L201.333 159.014L254.8 212.347C284.133 241.68 316.933 274.48 327.733 285.28C338.4 296.214 347.733 305.014 348.533 305.014C349.333 305.014 352.133 307.147 354.933 309.947L359.867 314.747L366.267 309.547C375.6 301.947 391.467 285.68 400.533 274.48L408.4 264.88L304.933 161.28L201.333 57.6805L169.333 89.6805L137.333 121.68V87.2805V53.0138H145.867H154.533L154.933 47.9471C155.333 43.2805 155.6 43.0138 160 43.0138C164.4 43.0138 164.667 43.2805 165.067 47.9471L165.467 53.0138H180.8H196V27.6804V2.34712H180.667H165.333V5.68045C165.333 8.74712 164.8 9.01378 159.867 9.01378C155.733 9.01378 154.533 8.61378 155.067 7.14712C156.8 2.88045 153.067 2.34712 120.133 2.48045C98.9333 2.48045 84.9333 3.14712 80.5333 4.21378Z" fill="#F7F2EB"/>
<path d="M343.733 95.9471C340.8 96.8805 340 98.2138 339.867 101.414C339.6 105.547 339.6 105.547 339.067 101.947C338.8 99.9471 338.267 98.3471 338 98.3471C337.733 98.3471 334.4 99.5471 330.667 101.014C327.067 102.48 324 103.28 324 102.88C324 102.347 323.2 102.747 322.267 103.547C321.2 104.347 320 104.614 319.6 104.08C319.067 103.68 318.667 107.814 318.667 113.414V123.68H350H381.333L381.2 113.28C381.067 106.08 380.8 104.08 380 106.347C379.067 109.414 378.933 109.414 378.8 106.747C378.667 105.147 378.133 103.547 377.333 103.014C376.667 102.614 375.867 106.214 375.6 111.947L375.2 121.68L374.933 111.947C374.667 103.147 373.2 99.8138 371.6 103.947C371.2 104.88 370.8 104.48 370.8 103.014C370.667 101.28 369.733 100.214 368 100.08C365.733 99.8138 365.333 100.88 364.933 110.747L364.533 121.68L364.267 109.947C364.133 103.547 363.467 98.3471 362.667 98.3471C362 98.3471 361.2 103.547 360.933 109.947L360.533 121.68L360.267 109.68L360 97.5471L355.6 95.9471C350.4 94.0805 348.667 94.0805 343.733 95.9471ZM350.267 114.614C350 118.48 349.867 115.68 349.867 108.347C349.867 101.014 350 97.8138 350.267 101.28C350.533 104.747 350.533 110.747 350.267 114.614ZM324.933 117.947C324.667 120.08 324.4 118.614 324.4 115.014C324.4 111.28 324.667 109.68 324.933 111.28C325.2 113.014 325.2 115.947 324.933 117.947ZM371.6 117.947C371.333 120.08 371.067 118.614 371.067 115.014C371.067 111.28 371.333 109.68 371.6 111.28C371.867 113.014 371.867 115.947 371.6 117.947ZM339.6 117.28C339.333 119.014 339.067 117.947 339.067 115.014C338.933 112.08 339.2 110.747 339.6 111.947C339.867 113.28 339.867 115.68 339.6 117.28ZM379.6 118.614C379.333 120.347 379.067 119.014 379.067 115.68C379.067 112.347 379.333 111.014 379.6 112.614C379.867 114.347 379.867 117.014 379.6 118.614Z" fill="#F7F2EB"/>
<path d="M316.533 128.214C316.133 129.281 316 132.347 316.267 135.147C316.667 139.681 317.067 140.347 322.667 142.214C338.533 147.814 341.867 152.214 342.4 169.014L342.933 181.681L349.067 187.947C352.4 191.547 355.6 194.347 356 194.347C356.4 194.347 356.533 187.281 356.533 178.481C356.267 154.614 360.267 147.014 374.933 142.614L382.667 140.347V133.281V126.347H350C323.2 126.347 317.067 126.747 316.533 128.214Z" fill="#F7F2EB"/>
</svg>
