<?xml version="1.0" encoding="utf-8"?>

<!-- Uploaded to: SVG Repo, www.svgrepo.com, Generator: SVG Repo Mixer Tools -->
<svg version="1.1" id="Icons" xmlns="http://www.w3.org/2000/svg" xmlns:xlink="http://www.w3.org/1999/xlink" 
	 viewBox="0 0 32 32" xml:space="preserve">
<style type="text/css">
	.st0{fill:none;stroke:#000000;stroke-width:2;stroke-linecap:round;stroke-linejoin:round;stroke-miterlimit:10;}
</style>
<g>
	<path d="M31,28h-3v-5.3c0-6.5-2.2-12.8-6.3-17.9C21,4,20.1,3.4,19,3.3c-1.1-0.1-2.2,0.2-3,0.9C15,4.9,14.5,5.9,14.4,7
		c-0.1,1.1,0.3,2.2,1,3.1l1.1,1.3c1.6,1.8,1.6,4.5,0.2,6.4l-1.3-1.3c-1-1-2.4-1.5-3.9-1.5H8.1c-2.7,0-5,1.9-5.5,4.4
		C3.4,19.1,4.2,19,5,19c3.9,0,7,3.1,7,7c0,1.5-0.5,2.9-1.3,4h4.3c2.5,0,4.6-1.4,5.5-3.7c0.9-2.1,0.3-4.5-1.4-6.1l-1.1-1
		c2.2-2.6,2.2-6.5-0.1-9.1l-1.1-1.3c-0.4-0.4-0.6-1-0.5-1.6c0.1-0.6,0.3-1.1,0.8-1.5c0.4-0.4,1-0.5,1.6-0.5c0.6,0.1,1.1,0.3,1.4,0.8
		c3.8,4.7,5.8,10.6,5.8,16.6V28h-1c-0.6,0-1,0.4-1,1s0.4,1,1,1h6c0.6,0,1-0.4,1-1S31.6,28,31,28z"/>
	<circle cx="5" cy="26" r="5"/>
</g>
</svg>